<?xml version="1.0" encoding="utf-8"?>
<!-- Generator: Adobe Illustrator 18.1.1, SVG Export Plug-In . SVG Version: 6.00 Build 0)  -->
<!DOCTYPE svg PUBLIC "-//W3C//DTD SVG 1.1//EN" "http://www.w3.org/Graphics/SVG/1.1/DTD/svg11.dtd">
<svg version="1.1" id="Layer_1" xmlns="http://www.w3.org/2000/svg" xmlns:xlink="http://www.w3.org/1999/xlink" x="0px" y="0px"
	 viewBox="0 0 2000 2000" enable-background="new 0 0 2000 2000" fill="#fff" xml:space="preserve">
<path d="M340.3,1385.3c-14,21.5-23.6,30.6-34.1,38.2c-10.2,7.3-23.5,11-39.5,11c-20.9,0-37.4-6.4-50.6-19.4
	c-11.5-11.6-18.7-29-21.5-46h220.1l2.3-24.1v-0.1c0-51.7-14.8-92.9-42.3-122.4c-27.8-29.9-66.4-45-113.9-45
	c-47,0-85.6,15.6-114.4,46.3c-28.3,30.9-42.7,71.8-42.7,121.4c0,50.1,14.7,91,43.9,121.5c29.3,30.4,68.4,45.9,116.5,45.9
	c16.6,0,32.2-1.7,46.5-5.2c14.4-3.5,28.1-9.1,40.5-16.6c12.4-7.5,24.1-17.1,34.9-28.7c10.7-11.4,18.1-19.6,27.6-35.6l4.2-6.9
	l-73.6-40.3L340.3,1385.3z M201.4,1293c1.7,0,3.6-6.2,5.9-9.6c3.9-6.1,8.7-10.5,14.3-14.8c5.5-4.3,11.7-7.2,18.5-9.5
	c6.8-2.3,14.1-4.9,21.9-4.9c30.8,0,51,17.9,61.3,38.9H201.4z"/>
<path d="M692,1210.8c-26-22.2-56.3-33.5-88.8-33.5c-43.7,0-80.4,16.2-109.2,48.2c-28.9,31.6-43.5,71.4-43.5,118.3
	c0,47.9,14.7,88.6,43.6,120.8c29.3,31.7,66.3,47.8,110.6,47.8c31.9,0,61.3-10.4,87.3-31.1v21.6h85v-459h-85V1210.8z M674.7,1410.3
	c-14.9,16.2-33.9,24.1-58.2,24.1c-22.6,0-40.8-8.2-55.6-25c-14.5-16.7-21.9-38.8-21.9-65.7c0-25.4,7.3-46.1,22.4-63.1
	c15.1-16.7,33.3-24.8,55.7-24.8c23.9,0,42.7,8,57.5,24.4c14.9,16.9,22.4,38.8,22.4,65C697.1,1371.6,689.6,1393.5,674.7,1410.3z"/>
<path d="M1020,1367.1c0,28.9-6.7,67.4-54,67.4s-54-38.4-54-67.4V1187h-85v181.7c0,29,2.2,50.5,8.5,65.7
	c6.6,16.8,17.4,32.2,33.1,45.6c25.4,21.6,57.7,32.6,96.4,32.6c38.9,0,71.4-11,96.9-32.6c15.5-13.4,26.5-28.8,32.9-45.7l0.3-0.2
	c6.4-18.3,9.9-40.3,9.9-65.3V1187h-85V1367.1z"/>
<path d="M1312.4,1177.3c-49.2,0-91.3,16.4-125.2,48.7c-34,32.4-51.2,72.8-51.2,119.9c0,47.1,17,87.2,50.6,119
	c33.4,31.5,75.5,47.5,125.1,47.5c30,0,60.2-7.7,90.1-22.9l4.1-2.2v-107.3l-13.5,15.3c-16.4,19.5-30.6,25.7-42.4,32.2
	c-11.9,6.6-25.8,6.9-41.5,6.9c-24.8,0-44.6-8.1-60.5-24.9c-15.8-16.9-23.5-38-23.5-64.5c0-25.9,8-46.8,24.4-63.9
	c16.4-17,36.4-25.3,61.3-25.3c15.6,0,29.3,1.4,40.7,8.1l0.1,0.1c12,6.8,25.8,15.6,41.4,34.3l13.6,15.5v-112l-3.9-2.2
	C1374,1184.8,1344,1177.3,1312.4,1177.3z"/>
<path d="M1678,1210.8c-21-22.2-54.9-33.5-87.3-33.5c-43.7,0-79.8,16.1-108.9,47.9c-28.9,31.6-43.2,71.5-43.2,118.6
	c0,47.9,14.8,88.6,43.8,120.8c29.3,31.7,65.4,47.8,110.1,47.8c30.7,0,64.5-10.6,85.5-31.4v22h90v-316h-90V1210.8z M1685.5,1345.4
	c0,26.3-7.5,48.1-22.4,65c-14.9,16.2-33.9,24.1-58.2,24.1c-22.6,0-40.8-8.2-55.6-25c-14.5-16.7-21.9-38.8-21.9-65.7
	c0-25.4,7.3-46.1,22.4-63.1c15.1-16.7,33.3-24.8,55.7-24.8c23.9,0,42.7,8,57.5,24.4C1678,1297.2,1685.5,1319.1,1685.5,1345.4z"/>
<rect x="1809" y="1044" width="88" height="459"/>
<g>
	<path d="M1595.3,663.6c-0.8-1.6-2.4-2.6-4.3-2.6h-3.9h-257.7h-2.4v59.6c0,16.1-11.8,29.4-26.8,29.4h-88
		c-14.9,0-27.2-13.2-27.2-29.4V661H809v59.6c0,16.1-11.7,29.4-26.6,29.4h-88c-14.9,0-26.4-13.2-26.4-29.4V661h-1.4H413.5h-4.6
		c-9.3,0-15.9,8.4-15.9,18.4V1146h39V944h1132v202h39V679.4C1603,672.7,1600.1,666.8,1595.3,663.6z"/>
</g>
<path d="M1301.2,731h-89.4c-2.8,0-5-2.2-5-5V575.9c0-2.8,2.2-5,5-5h89.4c2.8,0,5,2.2,5,5V726C1306.2,728.8,1304,731,1301.2,731z"/>
<path d="M783.5,731h-89.9c-2.8,0-5-2.2-5-5V575.9c0-2.8,2.2-5,5-5h89.9c2.8,0,5,2.2,5,5V726C788.5,728.8,786.2,731,783.5,731z"/>
</svg>
