<?xml version="1.0" encoding="utf-8"?>
<!-- Generator: Adobe Illustrator 18.1.1, SVG Export Plug-In . SVG Version: 6.00 Build 0)  -->
<!DOCTYPE svg PUBLIC "-//W3C//DTD SVG 1.1//EN" "http://www.w3.org/Graphics/SVG/1.1/DTD/svg11.dtd">
<svg version="1.1" id="Layer_1" xmlns="http://www.w3.org/2000/svg" xmlns:xlink="http://www.w3.org/1999/xlink" x="0px" y="0px"
	 viewBox="0 0 300 300" enable-background="new 0 0 300 300" xml:space="preserve">
<g>
	<ellipse fill="#FFFFFF" cx="205.2" cy="91.7" rx="23.9" ry="7.4"/>
	<path fill="#FFFFFF" d="M181,96v14.7c0,4.1,10.8,7.4,24,7.4c13.2,0,24-3.3,24-7.4V96c-0.4,4-10.9,7.1-23.8,7.1
		c-13.2,0-23.9-3.3-23.9-7.4"/>
	<path fill="#FFFFFF" d="M181,116v14.7c0,4.1,10.8,7.4,24,7.4c13.2,0,24-3.3,24-7.4V116c-0.4,4-10.9,7.1-23.8,7.1
		c-13.2,0-23.9-3.3-23.9-7.4"/>
	<ellipse fill="#FFFFFF" cx="151.2" cy="168.7" rx="23.9" ry="7.4"/>
	<path fill="#FFFFFF" d="M127,173v14.7c0,4.1,10.8,7.4,24,7.4c13.2,0,24-3.3,24-7.4V173c-0.4,4-10.9,7.1-23.8,7.1
		c-13.2,0-23.9-3.3-23.9-7.4"/>
	<path fill="#FFFFFF" d="M127,193v14.7c0,4.1,10.8,7.4,24,7.4c13.2,0,24-3.3,24-7.4V193c-0.4,4-10.9,7.1-23.8,7.1
		c-13.2,0-23.9-3.3-23.9-7.4"/>
	<path fill="#FFFFFF" d="M181,135v14.7c0,4.1,10.8,7.4,24,7.4c13.2,0,24-3.3,24-7.4V135c-0.4,4-10.9,7.1-23.8,7.1
		c-13.2,0-23.9-3.3-23.9-7.4"/>
	<path fill="#FFFFFF" d="M181,154v14.7c0,4.1,10.8,7.4,24,7.4c13.2,0,24-3.3,24-7.4V154c-0.4,4-10.9,7.1-23.8,7.1
		c-13.2,0-23.9-3.3-23.9-7.4"/>
	<ellipse fill="#FFFFFF" cx="95.2" cy="129.7" rx="23.9" ry="7.4"/>
	<path fill="#FFFFFF" d="M71,134v14.7c0,4.1,10.8,7.4,24,7.4c13.2,0,24-3.3,24-7.4V134c-0.4,4-10.9,7.1-23.8,7.1
		c-13.2,0-23.9-3.3-23.9-7.4"/>
	<path fill="#FFFFFF" d="M71,154v14.7c0,4.1,10.8,7.4,24,7.4c13.2,0,24-3.3,24-7.4V154c-0.4,4-10.9,7.1-23.8,7.1
		c-13.2,0-23.9-3.3-23.9-7.4"/>
	<path fill="#FFFFFF" d="M71,173v14.7c0,4.1,10.8,7.4,24,7.4c13.2,0,24-3.3,24-7.4V173c-0.4,4-10.9,7.1-23.8,7.1
		c-13.2,0-23.9-3.3-23.9-7.4"/>
	<path fill="#FFFFFF" d="M71,192v14.7c0,4.1,10.8,7.4,24,7.4c13.2,0,24-3.3,24-7.4V192c-0.4,4-10.9,7.1-23.8,7.1
		c-13.2,0-23.9-3.3-23.9-7.4"/>
	<path fill="#FFFFFF" d="M181,173v14.7c0,4.1,10.8,7.4,24,7.4c13.2,0,24-3.3,24-7.4V173c-0.4,4-10.9,7.1-23.8,7.1
		c-13.2,0-23.9-3.3-23.9-7.4"/>
	<path fill="#FFFFFF" d="M181,193v14.7c0,4.1,10.8,7.4,24,7.4c13.2,0,24-3.3,24-7.4V193c-0.4,4-10.9,7.1-23.8,7.1
		c-13.2,0-23.9-3.3-23.9-7.4"/>
</g>
<ellipse fill="#698191" cx="150.2" cy="149.9" rx="149.8" ry="150.3"/>
<g>
	<path fill="#FFFFFF" d="M103.1,83.8c-1.7-4.4-1.8-9-0.3-13.1c1.6-4.1,4.8-7.3,9-9l16.5-6.5c1.9-0.7,3.8-1.1,5.8-1.1
		c6.6,0,12.6,4.5,15.3,11.4l23.8,60.5c1.8,4.5,1.9,9.2,0.5,13.4c-1.5,4.3-4.6,7.6-8.7,9.2l-5.9,2.3c-0.4,0.1-0.9,0.3-1.2,0.7
		c-0.2,0.3-0.3,0.7-0.1,1.1l2.1,5.3l7.6-3c5.9-2.3,10.4-6.9,12.6-12.9c2.1-5.8,1.9-12.3-0.5-18.5l-23.8-60.5
		c-3.8-9.6-12.2-15.8-21.6-15.8c-2.8,0-5.6,0.5-8.4,1.6l-16.5,6.5c-6,2.3-10.5,6.8-12.8,12.6c-2.2,5.7-2.2,12.2,0.2,18.2l22.7,57.9
		l6.3-2.5L103.1,83.8z"/>
	<path fill="#FFFFFF" d="M212.2,205.7l-22.7-57.9l-6.3,2.5l22.7,57.9c3.6,9.2-0.1,18.7-8.7,22l-16.5,6.5c-1.9,0.7-3.8,1.1-5.8,1.1
		c-6.6,0-12.6-4.5-15.3-11.4l-23.8-60.5c-1.8-4.5-1.9-9.2-0.5-13.4c1.5-4.3,4.6-7.6,8.7-9.2l5.9-2.3c0.4-0.1,0.9-0.3,1.2-0.7
		c0.2-0.3,0.3-0.7,0.1-1.1l-2.1-5.3l-7.6,3c-5.9,2.3-10.4,6.9-12.6,12.9c-2.1,5.8-1.9,12.3,0.5,18.5l23.8,60.5
		c3.8,9.6,12.2,15.8,21.6,15.8h0c2.8,0,5.6-0.5,8.4-1.6l16.5-6.5C211.8,231.7,217.2,218.5,212.2,205.7z"/>
</g>
</svg>
