<?xml version="1.0" encoding="utf-8"?>
<!-- Generator: Adobe Illustrator 18.1.1, SVG Export Plug-In . SVG Version: 6.00 Build 0)  -->
<!DOCTYPE svg PUBLIC "-//W3C//DTD SVG 1.1//EN" "http://www.w3.org/Graphics/SVG/1.1/DTD/svg11.dtd">
<svg version="1.1" id="Layer_1" xmlns="http://www.w3.org/2000/svg" xmlns:xlink="http://www.w3.org/1999/xlink" x="0px" y="0px"
	 viewBox="0 0 300 300" enable-background="new 0 0 300 300" xml:space="preserve">
<ellipse fill="#698191" cx="150.2" cy="149.9" rx="149.8" ry="150.3"/>
<g>
	<ellipse fill="#FFFFFF" cx="205.2" cy="91.7" rx="23.9" ry="7.4"/>
	<path fill="#FFFFFF" d="M181,96v14.7c0,4.1,10.8,7.4,24,7.4c13.2,0,24-3.3,24-7.4V96c-0.4,4-10.9,7.1-23.8,7.1
		c-13.2,0-23.9-3.3-23.9-7.4"/>
	<path fill="#FFFFFF" d="M181,116v14.7c0,4.1,10.8,7.4,24,7.4c13.2,0,24-3.3,24-7.4V116c-0.4,4-10.9,7.1-23.8,7.1
		c-13.2,0-23.9-3.3-23.9-7.4"/>
	<ellipse fill="#FFFFFF" cx="151.2" cy="168.7" rx="23.9" ry="7.4"/>
	<path fill="#FFFFFF" d="M127,173v14.7c0,4.1,10.8,7.4,24,7.4c13.2,0,24-3.3,24-7.4V173c-0.4,4-10.9,7.1-23.8,7.1
		c-13.2,0-23.9-3.3-23.9-7.4"/>
	<path fill="#FFFFFF" d="M127,193v14.7c0,4.1,10.8,7.4,24,7.4c13.2,0,24-3.3,24-7.4V193c-0.4,4-10.9,7.1-23.8,7.1
		c-13.2,0-23.9-3.3-23.9-7.4"/>
	<path fill="#FFFFFF" d="M181,135v14.7c0,4.1,10.8,7.4,24,7.4c13.2,0,24-3.3,24-7.4V135c-0.4,4-10.9,7.1-23.8,7.1
		c-13.2,0-23.9-3.3-23.9-7.4"/>
	<path fill="#FFFFFF" d="M181,154v14.7c0,4.1,10.8,7.4,24,7.4c13.2,0,24-3.3,24-7.4V154c-0.4,4-10.9,7.1-23.8,7.1
		c-13.2,0-23.9-3.3-23.9-7.4"/>
	<ellipse fill="#FFFFFF" cx="95.2" cy="129.7" rx="23.9" ry="7.4"/>
	<path fill="#FFFFFF" d="M71,134v14.7c0,4.1,10.8,7.4,24,7.4c13.2,0,24-3.3,24-7.4V134c-0.4,4-10.9,7.1-23.8,7.1
		c-13.2,0-23.9-3.3-23.9-7.4"/>
	<path fill="#FFFFFF" d="M71,154v14.7c0,4.1,10.8,7.4,24,7.4c13.2,0,24-3.3,24-7.4V154c-0.4,4-10.9,7.1-23.8,7.1
		c-13.2,0-23.9-3.3-23.9-7.4"/>
	<path fill="#FFFFFF" d="M71,173v14.7c0,4.1,10.8,7.4,24,7.4c13.2,0,24-3.3,24-7.4V173c-0.4,4-10.9,7.1-23.8,7.1
		c-13.2,0-23.9-3.3-23.9-7.4"/>
	<path fill="#FFFFFF" d="M71,192v14.7c0,4.1,10.8,7.4,24,7.4c13.2,0,24-3.3,24-7.4V192c-0.4,4-10.9,7.1-23.8,7.1
		c-13.2,0-23.9-3.3-23.9-7.4"/>
	<path fill="#FFFFFF" d="M181,173v14.7c0,4.1,10.8,7.4,24,7.4c13.2,0,24-3.3,24-7.4V173c-0.4,4-10.9,7.1-23.8,7.1
		c-13.2,0-23.9-3.3-23.9-7.4"/>
	<path fill="#FFFFFF" d="M181,193v14.7c0,4.1,10.8,7.4,24,7.4c13.2,0,24-3.3,24-7.4V193c-0.4,4-10.9,7.1-23.8,7.1
		c-13.2,0-23.9-3.3-23.9-7.4"/>
</g>
</svg>
